<svg xmlns="http://www.w3.org/2000/svg" viewBox="0 0 1024 226"><path fill="#e38717" d="M0 0h1024v226H0Z"/><path d="M54 15c-11 0-21 7-25 17L11 73c-4 9 3 20 13 20h58c3 0 5-2 6-5l6-13H33l16-38-9-4h68c2 0 5-2 6-4l6-14Zm150 61c-4 10-14 17-25 17h-62c-9 0-16-11-12-20l18-41c4-10 14-17 25-17h61c10 0 17 10 13 19Zm-20-5 16-38h-66l9 4-17 38h52c2 0 5-2 6-4Zm74 136h-13l26-59h-29l8-18h79l-6 13c-1 2-4 5-8 5h-22l-22 51c-3 5-8 8-13 8Zm258-21h-25l-10 21h-22l34-77h21l-15 37 51-36 4-1h33l-58 40 26 37h-24l-15-21Zm-41-56h-22l-34 77h17c3 0 7-2 8-5l19-45Zm-65 77h-23l-10-17h-41l-4 9c-2 5-7 8-13 8h-13l33-77h74c10 0 17 10 13 19l-15 34c-1 4-6 7-11 7l10 17Zm7-38-12-21h-61l8 4-9 21h46c3 0 6-2 7-5l9-20Zm184-7h50l-5 11c-1 3-3 4-6 4h-45l-6 13h61l-5 13c-1 3-4 4-7 4h-68c-5 0-8-5-6-9l25-59c2-6 7-9 13-9h74l-6 13c-1 3-3 5-6 5h-67l9 4ZM240 75l25-60h-13c-6 0-11 4-13 9l-21 49c-4 9 2 20 12 20h56c12 0 22-7 26-17l26-61h-13c-6 0-11 4-13 9l-20 47c-1 2-4 4-7 4Zm226 18h-13l26-60h-28l7-18h79l-5 13c-1 3-5 5-8 5h-23l-22 51c-2 5-7 9-13 9Zm250 0h-23l-10-18h-41l-4 9c-2 5-7 9-13 9h-13l33-78h74c10 0 17 10 13 19l-14 34c-2 4-7 7-12 7l10 18Zm7-39-12-21h-61l8 4-8 21h46c2 0 5-2 6-4l9-21Zm-116-7h-50l5-10-9-4h67c3 0 5-2 6-5l6-13h-74c-6 0-11 4-13 9l-26 59c-2 4 2 10 7 10h68c3 0 5-2 6-5l6-13h-61l6-13h45c3 0 5-1 6-4ZM345 84c-2 5-7 9-12 9h-14l34-78h16c3 0 5 2 6 4l27 50 19-45c2-5 7-9 13-9h13l-31 73c-1 3-4 5-7 5h-14c-2 0-5-2-6-4l-25-48-19 43ZM191 190l5-13h-46c-10 0-16-10-13-19l2-4 3-7c5-10 15-17 26-17h70l-5 13c-1 3-4 5-7 5h-73l9 4-3 8h46c10 0 17 10 13 19l-6 12c-4 10-14 16-25 16h-71l6-13c1-3 4-4 7-4Z" style="fill:#1e202f"/><path fill="none" d="M956 131H797l-1 3-14 33-3 6h159c9 0 16 10 12 19l-8 19H715l32-77c11-25 36-41 63-41h134l1-3 14-32 3-7H783l15-37h180c22 0 38 24 29 45l-23 53c-5 11-16 19-28 19Z" style="stroke:#fff;stroke-width:9.0291109085;fill-opacity:0"/></svg>