<svg xmlns="http://www.w3.org/2000/svg" xml:space="preserve" style="enable-background:new 0 0 500 500" viewBox="0 0 500 500"><g style="opacity:.61"><path d="m214 461-6 13h-3l-5-13h3l4 9 4-9zM224 470h-8c0 1 1 2 3 2l2-1 2 1-4 2c-4 0-6-2-6-5s2-5 5-5 6 2 6 5v1m-8-2h5c0-1-1-2-3-2l-2 2M225 469c0-3 2-5 5-5l5 2-3 2-2-2c-1 0-2 1-2 3s1 3 2 3l2-2 3 2-5 2c-3 0-5-2-5-5M243 473l-3 1c-2 0-3-1-3-4v-4h-2v-2h2v-2h3v2h2v2h-2v4l1 2 1-1 1 2zM262 464v3c-2 0-3 0-3 2v5h-3v-10h3v1l3-1M263 473l1-3 5 2 2-2c0-2-7 0-7-5 0-2 1-4 5-4l4 1v2l-4-1c-2 0-2 1-2 2 0 2 7 0 7 5 0 2-2 4-5 4l-6-1M285 470h-7c0 1 1 2 3 2l2-1 2 1-4 2c-4 0-6-2-6-5s2-5 5-5 5 2 5 5v1m-7-2h5c0-1-1-2-3-2l-2 2M297 470h-7l2 2 3-1 1 1-4 2c-3 0-5-2-5-5s2-5 5-5 5 2 5 5v1m-7-2h4l-2-2-2 2M303 470l-1 2v2h-3v-14h3v8l4-4h3l-4 4 5 6h-4z" style="fill:#fff"/><path d="m257 475-3-3-2 2 3 3a1 1 0 1 0 2-2M250 463a1 1 0 0 1 1 0 1 1 0 0 0-2 0v-1a1 1 0 0 1 0 1 5 5 0 1 0 1 0m-2 2h1a2 2 0 0 1 3 0 2 2 0 0 0-3 0 2 2 0 0 0-2 0h1m4 4a3 3 0 0 1-3 4 3 3 0 0 1-2-4 2 2 0 1 1 2-3 2 2 0 0 1 4 1l-1 2" style="fill:#fff"/><path d="M252 467a1 1 0 1 1-1-1l1 1M248 467a1 1 0 1 1 0-1v1M243 468h1-1zM255 468z" style="fill:#fff"/><path d="M255 468a6 6 0 0 0-12 0 6 6 0 0 1 6-6 6 6 0 0 1 6 6M249 462h1-1zM245 462h8-8zM254 462h-1 1M314 473c0 2-2 2-2 0h2zM162 467l2 6 1-6h3l-3 8h-3v-3l-1-2-1 2-1 3h-2l-3-8h2l2 6 2-6h2zM177 467l1 6 2-6h3l-3 8h-3v-3l-1-2-1 2-1 3h-2l-3-8h2l2 6 2-6h2zM192 467l1 6 2-6h3l-3 8h-3v-3l-1-2-1 2-1 3h-2l-3-8h2l2 6 2-6h2zM201 474h-2c0-2 2-2 2 0zM323 473l-3 2c-3 0-5-2-5-5s2-4 5-4l3 1-2 2-1-1c-2 0-3 1-3 2 0 2 1 3 3 3l1-1 2 1zM332 470c0 3-2 5-4 5-3 0-5-2-5-5 0-2 2-4 5-4 2 0 4 2 4 4zm-7 0c0 2 1 3 3 3 1 0 2-1 2-3l-2-2c-2 0-3 1-3 2zM339 475v-5l-2-2-2 2v5h-2v-8h2v1l2-2 3 2 2-2c3 0 4 2 4 4v5h-2v-5l-2-2-1 2v5h-2z" style="fill:#fff"/></g><g style="opacity:.61"><path d="m346 431-2-2-1-1v-4l-7-8h-19l-2 1v12c-2 0-3 1-3 3v10c0 2 1 3 3 3v7l2 2a96320 96320 0 0 0 26-2v-7l1-1 2-2v-11zm-28-14h16v7l1 2h6a472 472 0 0 1 0 3h-24a19696 19696 0 0 1 1-12zm23 35h-23l-1-1a3988 3988 0 0 1 0-6 91338 91338 0 0 1 24 0 3988 3988 0 0 1 0 7z" style="fill:#fff"/><path d="M327 417h2v1h-2zM326 418h2v1h-2zM327 419h2v1h-2zM326 420h2v1h-2zM327 421h2v1h-2zM326 422h2v1h-2zM327 423h2v2h-2z" style="fill:#fff"/><path d="M326 424h2v2h-2zM327 426h2v1h-2zM326 427h2v1h-2zM327 428h2v1h-2zM326 429h2v1h-2zM188 431c0-1-1-2-3-2v-4l-1-1-7-8h-19l-1 1v12h-1c-1 0-2 1-2 3v10c0 2 1 3 2 3h1v7l2 2a96320 96320 0 0 0 26-2v-7l1-1 2-2v-11zm-29-14h16l1 1v6l1 2h6a472 472 0 0 1 0 3h-24a19696 19696 0 0 1 0-12zm23 35h-23v-1a3988 3988 0 0 1 0-6 91338 91338 0 0 1 24 0 3988 3988 0 0 1-1 7z" style="fill:#fff"/><path d="M160 441v-8h4a2 2 0 0 1 1 2 2 2 0 0 1-1 3h-3v3h-1zm3-5 1-1h-1v-1h-2v2h2zM166 433h2l3 5v-5h2v8h-2l-3-6v6h-2v-8zM178 436h4a3 3 0 0 1 0 1v1l-1 2-1 1h-2a4 4 0 0 1-3-1 4 4 0 0 1-1-5 4 4 0 0 1 4-2h2l1 1-1 1-1-1h-1a3 3 0 0 0-2 1l-1 1v2a3 3 0 0 0 2 1h3v-1h-2v-2zM224 431l-2-2-1-1v-4l-7-8h-19l-2 1v12c-2 0-3 1-3 3v10c0 2 1 3 3 3v7l2 2a96320 96320 0 0 0 26-2v-7h1v-1l2-2v-11zm-28-14h16v7l1 2h6a472 472 0 0 1 0 3h-24a19696 19696 0 0 1 1-12zm23 35h-23l-1-1a3988 3988 0 0 1 0-6 91338 91338 0 0 1 24 0 3988 3988 0 0 1 0 7z" style="fill:#fff"/><path d="M205 433h2l3 8h-2l-1-2h-3v2h-2l3-8zm2 4-1-2v-1 1l-1 2h2zM211 435a1 1 0 0 1 0-1 1 1 0 0 1 0-1h1v1c0 1 0 0 0 0l-1 1zm0 6v-6h1v6h-1zM261 431l-2-2-1-1v-4l-7-8h-19l-2 1v12c-2 0-3 1-3 3v10c0 2 1 3 3 3v7l2 2a96320 96320 0 0 0 26-2v-7h1v-1l2-2v-11zm-28-14h16v7l1 2h6a472 472 0 0 1 0 3h-24a19696 19696 0 0 1 1-12zm23 35h-23l-1-1a3988 3988 0 0 1 1-6 91338 91338 0 0 1 23 0 3988 3988 0 0 1 0 7z" style="fill:#fff"/><path d="M236 441h-1a3 3 0 0 1-1-1l-1-1 2-1v1h2l1-1h-1v-1h-1a4 4 0 0 1-2-1v-1a2 2 0 0 1 0-2h4l1 1-2 1v-1h-2v1l1 1h2v1a2 2 0 0 1 1 1 2 2 0 0 1-1 2l-1 1h-1zM240 433h1l2 5v1-1l2-5h2l-3 8h-2l-2-8zM251 436h4a3 3 0 0 1 0 1v1l-1 2-1 1h-2a4 4 0 0 1-3-1 4 4 0 0 1-1-5 4 4 0 0 1 4-2h2l1 1-1 1-1-1h-1a3 3 0 0 0-2 1v1l-1 1 1 1a3 3 0 0 0 1 1h3v-1h1-3v-2zM297 431l-2-2-1-1v-4l-7-8h-19l-1 1v12h-1c-1 0-2 1-2 3v10c0 2 1 3 2 3h1v7l1 2a96320 96320 0 0 0 26-2v-7h1l1-1 1-2v-11zm-28-14h16v7l1 2h7a472 472 0 0 1-1 3h-24a19696 19696 0 0 1 1-12zm23 35h-23l-1-1a3988 3988 0 0 1 1-6 91338 91338 0 0 1 24 0 5982 5982 0 0 1-1 7z" style="fill:#fff"/><path d="M273 434v2h3v1h-3v2h3v2h-5v-8h5v1h-3zM278 441v-8h5a2 2 0 0 1 0 2 2 2 0 0 1 0 2l-1 1h-3v3h-1zm3-5h1v-1l-1-1h-2v2h2zM287 441h-1a3 3 0 0 1-2-1v-1l1-1 1 1h2v-1l-1-1h-1a4 4 0 0 1-1-1h-1v-1a2 2 0 0 1 1-2h3l1 1-1 1v-1h-2v1l1 1h1l1 1a2 2 0 0 1 1 1 2 2 0 0 1-1 2l-1 1h-1zM321 439l4-5h-3v-1h5v1l-4 5h4v2h-6v-2zM328 433h2v8h-2v-8zM331 441v-8h5l1 1v1a2 2 0 0 1-1 2l-1 1h-2v3h-2zm3-5h1v-2h-2v2h1z" style="fill:#fff"/></g><g style="opacity:.61"><path d="M300 433h9v3h-9v-3zm0 4h9v2h-9v-2z" style="fill:#fff"/></g><g style="opacity:.61"><path d="M157 479h1c2 0 2 1 2 2s0 2-2 2h-1v-4zm1 3 2-1-2-2h-1v3h1zM165 481l2-2 2 2-2 2-2-2zm4 0-2-2-1 2 1 1 2-1zM180 479l-2 4-1-4-1 4h-1l-1-4 1 3 1-3h1l1 3 1-3h1zM188 479v4h-1l-2-3v3h-1v-4h1l2 3v-3h1zM193 479h1v3h2v1h-3v-4zM200 481l2-2 2 2-2 2-2-2zm4 0-2-2-2 2 2 1 2-1zM212 482h-3v1l1-4h1l2 4h-1v-1zm-1-1v-2l-1 2h1zM217 479h2l2 2-2 2h-2v-4zm2 3 2-1-2-2h-1v3h1zM234 482h-2l-1 1 2-4 2 4-1-1zm0-1-1-2-1 2h2zM240 479v3h2v1h-2v-4zM247 479v3h3v1h-3v-4zM260 479v2h2-2v2-4h3-3zM268 479v4-4zM273 479h1v3h2v1h-3v-4zM284 482v1h-3v-4h3-3v2h2-2v1h3zM295 479v2h2-2v2h-1v-4h3-2zM302 481c0-1 0-2 2-2l2 2-2 2c-2 0-2-1-2-2zm3 0-1-2-2 2 2 1 1-1zM313 483l-1-1h-1v1-4h1l2 1-1 1 1 2h-1zm0-3-1-1h-1v2h1l1-1zM323 479v4-3l-2 2-2-2v3-4l2 3 2-3zM331 482h-2l-1 1 1-4h1l2 4h-1v-1zm0-1-1-2-1 2h2zM337 479h-1 3-2v4-4zM343 482l2 1 1-1-3-2 2-1h1v1l-1-1-1 1c0 1 2 0 2 2l-1 1-2-1z" style="fill:#fff"/></g><path d="m112 294 11 9 35 31 32 34c5 6 7 6 11 12l-27 7c-19 7-37 17-54 12-3-1-14-12-19-16l-10-7c-10-7-13-2 0-34l10-24c3-7 7-18 11-24zm247-193c7 3 24 13 28 18 3 4 2 5 1 11l-7 55c-9 0-7-1-13-5l-55-41-21-17c1-2-1-1 3-2l31-7c16-4 19-5 33-12zM77 112c7-4 11-1 23-9 3-3 11-3 15-2 5 1 16 10 21 13 3 2 16 12 18 15l6 10c9 1 7 0 18 8l107 71 73 48 65 43c-2 4-4 18-5 24-6 25-13 36-25 61h-46c-5 0-4 1-6-1-10-10-27-30-37-39l-9-10c-27-28-14-20-20-27l-53-50-36-39-9-10h-1l-1-2-15-18-5-4-14-15-8-10-14-14-5-5-18-19c-5-6-18-16-19-19zm64-79L31 36c-6 21 0 10 0 33v42c-1 11-4 18-4 34 0 5-1 17 1 21 5 8 5 14 7 25 1 10 3 9-1 16l-2 18 9 9v16c-5 5 1 2-11 10l1 49 12 8-3 42c-12 8-9 19-9 30l2 41-3 21c28 7 22 5 53 5 28 0 24 0 52-3v5l13-1c12-1 7-3 11-4 3-1 34 6 40 7 2-3 1-2 5-4l15 19 11-11 20 8 6-5c2 3 3 6 7 7 6 1 7-9 20-9l76-3 2-3 4-3c5 3 7 6 14 6 21-2 10 5 37 3 4 0 3-1 7-2l9-2c-2-5-3-4-7-8l48 10V280l-13 1c1-4 6-2 7-10l-1-49c-1-3-10-14-13-17 3-8 4-7 9-14l-3-10 14-4v-51l-5-55 4-14V43c-12-7-10-8-19-8-7 0-17 0-25-2-9-2-6-3-17 7l-4-10-72-5c-14 0-12 1-17 17l-20 2-3-9h-19l2-2c4-3 3-2 6-8h-74c-3 5-7 8-13 10-7 2-3-2-8 2-3 4-4 3-10 3h-22l-10-1c-5-1-3-2-6-6z" style="fill-rule:evenodd;clip-rule:evenodd;fill:#d43b3b"/></svg>