<svg xmlns="http://www.w3.org/2000/svg" viewBox="0 0 202 77.2"><defs><style>.a{fill:#c79b3b}</style></defs><path d="M191 55c-4 0-7-1-7-4 0-2 2-4 5-4a5 5 0 0 1 5 4l7-3c-2-4-6-7-12-7-7 0-12 4-12 11 0 8 5 9 10 10 4 1 7 2 7 5 0 2-2 4-5 4s-6-2-6-4l-7 3c2 5 7 7 13 7 7 0 12-4 12-11 0-8-5-9-10-10ZM202 10v3h-6v4h5l-1 3h-4v5h-4V10ZM183 13a4 4 0 1 1-5 5 4 4 0 0 1 5-5Zm0 13a8 8 0 1 0-9-8 8 8 0 0 0 9 8ZM111 76h7V53l17 23h7V41h-7v24l-16-24h-10l2 4ZM167 63a10 10 0 0 1-6 5 10 10 0 0 1-4 1h-4V48h4a10 10 0 0 1 4 1 10 10 0 0 1 6 6 11 11 0 0 1 0 8Zm-3-20a22 22 0 0 0-7-2h-11v35h11a18 18 0 0 0 13-5 17 17 0 0 0 4-5 17 17 0 0 0-4-20 19 19 0 0 0-6-3ZM47 76H26V41h21v7H33v7h12l-1 7H33v7l14 1ZM94 48h13v-7H87v35h20v-6l-13-1v-7h10l2-7H94ZM121 28a17 17 0 0 1-1-6V0h7v21a9 9 0 0 0 2 6 7 7 0 0 0 9 0 8 8 0 0 0 2-6V0h8v22a18 18 0 0 1-1 6 14 14 0 0 1-3 4 12 12 0 0 1-4 3 17 17 0 0 1-12 0 11 11 0 0 1-5-3 13 13 0 0 1-2-4ZM83 25a18 18 0 0 1 0-14A18 18 0 0 1 93 1a17 17 0 0 1 7-1 19 19 0 0 1 9 2 16 16 0 0 1 7 7l-7 3a10 10 0 0 0-4-4 11 11 0 0 0-5-1 11 11 0 0 0-5 1 10 10 0 0 0-3 2 11 11 0 0 0-2 4 11 11 0 0 0 0 8 11 11 0 0 0 5 6 9 9 0 0 0 5 1 10 10 0 0 0 6-2 8 8 0 0 0 3-5H96l4-6h17v5a20 20 0 0 1-1 5 16 16 0 0 1-9 9 18 18 0 0 1-20-4 19 19 0 0 1-4-6ZM2 32V4L0 0h9v28h14l-2 7H0ZM2 73V45l-2-4h9v28h14l-2 7H0ZM47 35H26V0h21v7H33v7h12l-1 7H33v7h14ZM172 35h-21V0h21v7h-13v7h12l-2 7h-10v7h13v7ZM67 10l4 12h-9ZM57 35l2-7h14l3 7h8L70 0H59l2 5-12 30Z" class="a"/><path d="M62 77a19 19 0 0 0 4 0 18 18 0 0 0 7-1 16 16 0 0 0 9-9 20 20 0 0 0 2-5 40 40 0 0 0 0-5H66l-3 7h13a8 8 0 0 1-4 4 10 10 0 0 1-8 2h-1l-1-1a11 11 0 0 1-6-6 12 12 0 0 1 0-8 12 12 0 0 1 3-4 10 10 0 0 1 3-2 11 11 0 0 1 4-1 10 10 0 0 1 6 2 10 10 0 0 1 3 3l7-3a16 16 0 0 0-6-6 19 19 0 0 0-10-3 18 18 0 0 0-13 5 18 18 0 0 0-4 20 18 18 0 0 0 9 10 15 15 0 0 0 4 1Z" class="a"/></svg>