<svg xmlns="http://www.w3.org/2000/svg" data-name="Layer 1" viewBox="0 0 500 139.8"><defs><linearGradient id="a" x1="379" x2="379" y1="459.5" y2="320.3" gradientTransform="matrix(1 0 0 -1 5 774)" gradientUnits="userSpaceOnUse"><stop offset="0" stop-color="#f8b33f"/><stop offset="1" stop-color="#d78c3a"/></linearGradient></defs><path d="m577 391-2 3-1-3h-1v4h1v-3l1 3h1l1-3v3h1v-4Zm-9 0v1h2v3h1v-3h1v-1Zm-294 0h-14l3 7-24 55h16l2-5 24-5 5 10h16Zm-10 42h-1l7-16 6 14Zm103-119v62h-16v-31l-13 16h-2l-13-16v31h-16v-62h9l21 27 22-27Zm267 0-7 15h-20v59l-16 3v-62h-21l3 7v40h-16v-25l-21 4v21h-16v-62h16v27l21-4v-23Zm-217 77v14h-18v48h-17v-48h-15l-7-14Zm-26-62v10h25l-7 14h-18v23h-16v-62h42v15Zm-116-15h-14l3 8-25 54h17l2-5 24-4 4 9h17Zm-11 42 6-16 6 14Zm-53-27v10h24l-6 14h-18v9h26l-6 14h-36v-41l3-6h-21v62l-16-3v-59h-20l-7-15h103v15Zm300 18v29l-14-2c-5 3-10 4-17 4-18 0-31-13-31-32s13-32 31-32c15 0 26 9 29 22h-16a14 14 0 0 0-13-6c-9 0-15 6-15 16s6 17 15 17c7 0 15-4 15-16h16Zm-149 84c-3 14-14 23-31 23-18 0-31-13-31-32s13-32 31-32c16 0 26 9 30 22h-17c-2-4-7-7-12-7-9 0-15 7-15 17s6 17 15 17c6 0 11-3 13-8Zm-110-40-7 14h-15v48h-17v-48h-18v-14Zm293 24c18 4 26 8 26 19s-8 20-27 20c-21 0-28-10-28-23h16c0 6 4 10 12 10 6 0 10-3 10-6s-5-4-12-6c-17-5-24-9-24-20 0-9 6-19 26-19s25 10 25 20h-15c0-4-3-7-10-7s-10 3-10 5c0 4 4 5 11 7m-35 16c-3 14-13 23-30 23-18 0-31-13-31-32s13-32 31-32c16 0 26 9 30 22h-17c-3-4-7-7-13-7-9 0-15 7-15 17s6 17 15 17c7 0 11-3 14-8Zm-85-117h16v62h-16Zm0 77h16v62h-16Z" style="fill:url(#a)" transform="translate(-134 -314)"/></svg>